<?xml version="1.0" encoding="UTF-8" standalone="no"?>
<!DOCTYPE svg PUBLIC "-//W3C//DTD SVG 1.1//EN" "http://www.w3.org/Graphics/SVG/1.1/DTD/svg11.dtd">
<svg width="100%" height="100%" viewBox="0 0 3304 826" version="1.1" xmlns="http://www.w3.org/2000/svg" xmlns:xlink="http://www.w3.org/1999/xlink" xml:space="preserve" xmlns:serif="http://www.serif.com/" style="fill-rule:evenodd;clip-rule:evenodd;stroke-linejoin:round;stroke-miterlimit:2;">
    <g transform="matrix(1,0,0,1,-102,-891)">
        <g id="ArtBoard1" transform="matrix(11.2077,0,0,10.0849,-116.891,891)">
            <path id="path3" d="M19.53,0L19.53,70.749L58.65,27.487L58.65,0L19.53,0Z" style="fill:rgb(59,185,198);fill-rule:nonzero;"/>
            <rect id="rect5" x="66.046" y="0.001" width="27.028" height="81.811" style="fill:rgb(0,160,175);"/>
            <path id="path7" d="M19.53,81.812L58.65,81.812L58.65,38.554L19.53,81.812Z" style="fill:rgb(0,103,177);fill-rule:nonzero;"/>
            <path id="path9" d="M50.879,14.345C53.236,14.345 55.147,12.222 55.147,9.602C55.147,6.983 53.236,4.86 50.879,4.86C48.522,4.86 46.611,6.983 46.611,9.602C46.611,12.222 48.522,14.345 50.879,14.345" style="fill:white;fill-rule:nonzero;"/>
            <path id="path11" d="M73.515,29.228C75.872,29.228 77.783,27.106 77.783,24.486C77.783,21.867 75.872,19.744 73.515,19.744C71.158,19.744 69.247,21.867 69.247,24.486C69.247,27.105 71.158,29.228 73.515,29.228" style="fill:white;fill-rule:nonzero;"/>
            <path id="path13" d="M50.877,65.297C53.234,65.297 55.145,63.174 55.145,60.554C55.145,57.935 53.234,55.812 50.877,55.812C48.521,55.812 46.609,57.935 46.609,60.554C46.609,63.174 48.521,65.297 50.877,65.297" style="fill:white;fill-rule:nonzero;"/>
            <path id="path15" d="M104.72,0.919L106.819,0.919L106.819,11.559L119.913,11.559L119.913,0.919L122.012,0.919L122.012,25.424L119.913,25.424L119.913,13.549L106.82,13.549L106.82,25.424L104.721,25.424L104.721,0.919L104.72,0.919Z" style="fill:rgb(109,110,113);fill-rule:nonzero;"/>
            <path id="path17" d="M126.522,8.544C126.954,7.062 127.603,5.756 128.468,4.625C129.332,3.494 130.418,2.594 131.726,1.924C133.034,1.254 134.552,0.919 136.282,0.919C138.011,0.919 139.525,1.254 140.821,1.924C142.118,2.594 143.2,3.494 144.064,4.625C144.929,5.756 145.578,7.062 146.01,8.544C146.442,10.026 146.658,11.568 146.658,13.172C146.658,14.775 146.442,16.318 146.01,17.8C145.578,19.281 144.929,20.588 144.064,21.719C143.2,22.85 142.118,23.75 140.821,24.419C139.525,25.089 138.011,25.424 136.282,25.424C134.552,25.424 133.034,25.089 131.726,24.419C130.418,23.75 129.332,22.85 128.468,21.719C127.603,20.588 126.954,19.281 126.522,17.8C126.09,16.318 125.874,14.775 125.874,13.172C125.874,11.568 126.09,10.026 126.522,8.544ZM128.452,16.93C128.771,18.151 129.265,19.244 129.934,20.214C130.603,21.184 131.463,21.963 132.513,22.551C133.563,23.14 134.819,23.434 136.281,23.434C137.721,23.434 138.968,23.14 140.018,22.551C141.068,21.963 141.927,21.184 142.597,20.214C143.265,19.244 143.759,18.151 144.079,16.93C144.397,15.71 144.557,14.457 144.557,13.172C144.557,11.908 144.398,10.661 144.079,9.43C143.759,8.2 143.265,7.099 142.597,6.129C141.927,5.159 141.068,4.381 140.018,3.792C138.968,3.204 137.721,2.909 136.281,2.909C134.819,2.909 133.563,3.204 132.513,3.792C131.463,4.381 130.603,5.159 129.934,6.129C129.265,7.099 128.771,8.199 128.452,9.43C128.133,10.661 127.974,11.909 127.974,13.172C127.974,14.457 128.133,15.71 128.452,16.93Z" style="fill:rgb(109,110,113);fill-rule:nonzero;"/>
            <path id="path19" d="M166.669,8.847C166.483,7.909 166.18,7.069 165.758,6.325C165.335,5.582 164.82,4.959 164.214,4.455C163.606,3.952 162.936,3.568 162.207,3.306C161.476,3.043 160.709,2.91 159.906,2.91C158.443,2.91 157.187,3.205 156.138,3.793C155.087,4.382 154.228,5.16 153.559,6.13C152.89,7.1 152.396,8.2 152.077,9.431C151.758,10.662 151.598,11.91 151.598,13.173C151.598,14.458 151.758,15.711 152.077,16.931C152.396,18.152 152.891,19.245 153.559,20.215C154.228,21.185 155.087,21.964 156.138,22.552C157.187,23.141 158.443,23.435 159.906,23.435C160.913,23.435 161.837,23.229 162.669,22.817C163.504,22.405 164.218,21.844 164.816,21.135C165.412,20.426 165.897,19.597 166.266,18.647C166.637,17.698 166.875,16.673 166.977,15.576L169.077,15.576C168.933,17.086 168.614,18.447 168.121,19.66C167.626,20.873 166.987,21.908 166.205,22.765C165.423,23.623 164.502,24.282 163.442,24.739C162.381,25.197 161.203,25.426 159.906,25.426C158.176,25.426 156.658,25.091 155.351,24.421C154.042,23.752 152.956,22.852 152.092,21.721C151.227,20.59 150.578,19.283 150.146,17.802C149.714,16.32 149.497,14.777 149.497,13.174C149.497,11.57 149.713,10.028 150.146,8.546C150.579,7.064 151.227,5.758 152.092,4.627C152.956,3.496 154.041,2.596 155.351,1.926C156.657,1.256 158.176,0.921 159.906,0.921C160.956,0.921 161.98,1.093 162.978,1.436C163.976,1.78 164.882,2.289 165.696,2.963C166.509,3.639 167.189,4.468 167.735,5.451C168.279,6.435 168.625,7.568 168.77,8.848L166.669,8.848L166.669,8.847Z" style="fill:rgb(109,110,113);fill-rule:nonzero;"/>
            <path id="path21" d="M172.876,0.919L174.976,0.919L174.976,11.559L188.07,11.559L188.07,0.919L190.17,0.919L190.17,25.424L188.07,25.424L188.07,13.549L174.976,13.549L174.976,25.424L172.876,25.424L172.876,0.919Z" style="fill:rgb(109,110,113);fill-rule:nonzero;"/>
            <path id="path23" d="M196.223,16.844C196.202,18.103 196.378,19.156 196.749,20.001C197.118,20.848 197.629,21.523 198.276,22.026C198.924,22.529 199.692,22.889 200.578,23.107C201.462,23.325 202.409,23.433 203.418,23.433C203.995,23.433 204.623,23.345 205.302,23.17C205.983,22.995 206.615,22.716 207.202,22.333C207.788,21.95 208.277,21.458 208.668,20.856C209.06,20.254 209.255,19.527 209.255,18.673C209.255,18.017 209.116,17.447 208.838,16.966C208.56,16.485 208.2,16.08 207.757,15.752C207.314,15.424 206.826,15.156 206.29,14.947C205.755,14.739 205.229,14.57 204.715,14.438L199.804,13.159C199.146,12.984 198.518,12.765 197.921,12.502C197.324,12.24 196.799,11.89 196.345,11.452C195.893,11.014 195.528,10.479 195.249,9.844C194.971,9.21 194.832,8.433 194.832,7.514C194.832,6.946 194.935,6.278 195.141,5.512C195.348,4.746 195.733,4.025 196.3,3.346C196.866,2.668 197.642,2.094 198.631,1.623C199.62,1.152 200.885,0.917 202.43,0.917C203.522,0.917 204.561,1.077 205.55,1.397C206.538,1.718 207.407,2.199 208.158,2.838C208.91,3.479 209.502,4.275 209.935,5.224C210.367,6.173 210.583,7.278 210.583,8.536L208.483,8.536C208.442,7.598 208.256,6.78 207.928,6.082C207.598,5.385 207.156,4.801 206.599,4.332C206.044,3.863 205.411,3.509 204.7,3.268C203.989,3.028 203.243,2.908 202.462,2.908C201.74,2.908 201.046,2.99 200.378,3.155C199.708,3.319 199.121,3.582 198.617,3.942C198.113,4.303 197.706,4.779 197.398,5.371C197.089,5.962 196.934,6.694 196.934,7.569C196.934,8.116 197.022,8.592 197.197,8.997C197.371,9.402 197.614,9.74 197.923,10.014C198.231,10.288 198.586,10.518 198.989,10.703C199.39,10.89 199.817,11.037 200.27,11.146L205.644,12.557C206.426,12.776 207.162,13.044 207.852,13.362C208.542,13.679 209.149,14.073 209.674,14.543C210.198,15.014 210.61,15.589 210.909,16.267C211.207,16.945 211.356,17.765 211.356,18.728C211.356,18.991 211.331,19.34 211.279,19.778C211.228,20.216 211.105,20.681 210.909,21.174C210.713,21.667 210.436,22.164 210.075,22.667C209.715,23.171 209.221,23.63 208.593,24.046C207.965,24.461 207.187,24.795 206.261,25.046C205.336,25.299 204.222,25.424 202.926,25.424C201.629,25.424 200.425,25.258 199.312,24.926C198.201,24.595 197.254,24.08 196.471,23.382C195.689,22.685 195.087,21.792 194.665,20.705C194.242,19.618 194.063,18.331 194.124,16.844L196.223,16.844Z" style="fill:rgb(109,110,113);fill-rule:nonzero;"/>
            <path id="path25" d="M231.428,8.847C231.243,7.909 230.94,7.069 230.518,6.325C230.095,5.582 229.58,4.959 228.973,4.455C228.365,3.952 227.696,3.568 226.966,3.306C226.235,3.043 225.469,2.91 224.665,2.91C223.203,2.91 221.947,3.205 220.897,3.793C219.847,4.382 218.987,5.16 218.319,6.13C217.65,7.1 217.156,8.2 216.836,9.431C216.518,10.662 216.358,11.91 216.358,13.173C216.358,14.458 216.518,15.711 216.836,16.931C217.156,18.152 217.65,19.245 218.319,20.215C218.987,21.185 219.847,21.964 220.897,22.552C221.947,23.141 223.203,23.435 224.665,23.435C225.673,23.435 226.596,23.229 227.429,22.817C228.262,22.405 228.978,21.844 229.576,21.135C230.171,20.426 230.656,19.597 231.026,18.647C231.397,17.698 231.634,16.673 231.737,15.576L233.837,15.576C233.692,17.086 233.373,18.447 232.88,19.66C232.387,20.873 231.747,21.908 230.965,22.765C230.182,23.623 229.261,24.282 228.202,24.739C227.14,25.197 225.963,25.426 224.665,25.426C222.936,25.426 221.418,25.091 220.11,24.421C218.802,23.752 217.716,22.852 216.851,21.721C215.987,20.59 215.338,19.283 214.906,17.802C214.474,16.32 214.257,14.777 214.257,13.174C214.257,11.57 214.473,10.028 214.906,8.546C215.339,7.064 215.987,5.758 216.851,4.627C217.716,3.496 218.802,2.596 220.11,1.926C221.417,1.256 222.936,0.921 224.665,0.921C225.715,0.921 226.74,1.093 227.737,1.436C228.735,1.78 229.641,2.289 230.456,2.963C231.268,3.639 231.949,4.468 232.494,5.451C233.039,6.435 233.385,7.568 233.529,8.848L231.428,8.848L231.428,8.847Z" style="fill:rgb(109,110,113);fill-rule:nonzero;"/>
            <path id="path27" d="M237.666,0.919L239.765,0.919L239.765,11.559L252.86,11.559L252.86,0.919L254.96,0.919L254.96,25.424L252.86,25.424L252.86,13.549L239.765,13.549L239.765,25.424L237.666,25.424L237.666,0.919Z" style="fill:rgb(109,110,113);fill-rule:nonzero;"/>
            <path id="path29" d="M259.777,0.919L261.878,0.919L261.878,15.75C261.878,17.137 262.022,18.316 262.31,19.29C262.598,20.263 263.02,21.057 263.575,21.672C264.131,22.287 264.811,22.735 265.614,23.014C266.418,23.294 267.322,23.434 268.333,23.434C269.34,23.434 270.252,23.294 271.065,23.014C271.878,22.735 272.564,22.287 273.119,21.672C273.674,21.057 274.096,20.263 274.385,19.29C274.673,18.316 274.817,17.137 274.817,15.75L274.817,0.919L276.916,0.919L276.916,16.28C276.916,17.513 276.758,18.684 276.438,19.794C276.119,20.902 275.614,21.872 274.925,22.701C274.235,23.53 273.35,24.191 272.269,24.684C271.189,25.177 269.876,25.423 268.332,25.423C266.808,25.423 265.505,25.177 264.425,24.684C263.344,24.191 262.459,23.53 261.769,22.701C261.079,21.872 260.575,20.902 260.255,19.794C259.936,18.685 259.777,17.514 259.777,16.28L259.777,0.919Z" style="fill:rgb(109,110,113);fill-rule:nonzero;"/>
            <path id="path31" d="M281.734,0.919L283.834,0.919L283.834,23.434L296.187,23.434L296.187,25.424L281.734,25.424L281.734,0.919Z" style="fill:rgb(109,110,113);fill-rule:nonzero;"/>
            <path id="path33" d="M298.936,0.919L314.16,0.919L314.16,2.909L301.036,2.909L301.036,11.764L313.327,11.764L313.327,13.754L301.036,13.754L301.036,23.433L314.315,23.433L314.315,25.423L298.936,25.423L298.936,0.919Z" style="fill:rgb(109,110,113);fill-rule:nonzero;"/>
            <path id="path39" d="M105.089,34.825L107.188,34.825L107.188,47.74L120.004,34.825L122.846,34.825L112.994,44.747L123.309,58.84L120.591,58.84L111.419,46.16L107.188,50.488L107.188,58.84L105.089,58.84L105.089,34.825Z" style="fill:rgb(109,110,113);fill-rule:nonzero;"/>
            <path id="path41" d="M125.316,42.298C125.748,40.845 126.396,39.565 127.261,38.457C128.126,37.349 129.211,36.467 130.519,35.81C131.827,35.154 133.346,34.826 135.075,34.826C136.804,34.826 138.318,35.154 139.615,35.81C140.911,36.467 141.993,37.349 142.858,38.457C143.722,39.564 144.371,40.845 144.803,42.298C145.235,43.75 145.452,45.262 145.452,46.832C145.452,48.404 145.236,49.915 144.803,51.368C144.371,52.82 143.722,54.1 142.858,55.208C141.993,56.316 140.911,57.199 139.615,57.855C138.318,58.511 136.804,58.839 135.075,58.839C133.346,58.839 131.828,58.511 130.519,57.855C129.211,57.199 128.126,56.316 127.261,55.208C126.396,54.101 125.748,52.82 125.316,51.368C124.884,49.915 124.667,48.404 124.667,46.832C124.668,45.262 124.884,43.75 125.316,42.298ZM127.246,50.516C127.564,51.712 128.058,52.785 128.728,53.735C129.396,54.685 130.257,55.449 131.307,56.025C132.357,56.602 133.612,56.889 135.074,56.889C136.515,56.889 137.761,56.602 138.811,56.025C139.861,55.449 140.721,54.685 141.39,53.735C142.059,52.785 142.553,51.713 142.872,50.516C143.191,49.321 143.351,48.093 143.351,46.832C143.351,45.595 143.191,44.372 142.872,43.165C142.553,41.959 142.059,40.881 141.39,39.931C140.721,38.981 139.861,38.218 138.811,37.641C137.761,37.065 136.515,36.777 135.074,36.777C133.612,36.777 132.357,37.065 131.307,37.641C130.257,38.218 129.396,38.981 128.728,39.931C128.058,40.881 127.564,41.959 127.246,43.165C126.926,44.372 126.767,45.595 126.767,46.832C126.767,48.093 126.926,49.32 127.246,50.516Z" style="fill:rgb(109,110,113);fill-rule:nonzero;"/>
            <path id="path43" d="M149.465,34.825L158.792,34.825C159.718,34.825 160.61,34.921 161.464,35.111C162.318,35.301 163.07,35.627 163.719,36.087C164.368,36.546 164.887,37.151 165.277,37.902C165.669,38.654 165.864,39.59 165.864,40.711C165.864,41.339 165.771,41.95 165.586,42.544C165.401,43.139 165.138,43.677 164.799,44.158C164.459,44.64 164.057,45.05 163.594,45.387C163.13,45.723 162.61,45.958 162.034,46.093L162.034,46.16C163.454,46.361 164.587,46.995 165.431,48.06C166.275,49.124 166.697,50.443 166.697,52.011C166.697,52.595 166.62,53.273 166.465,54.046C166.311,54.819 165.966,55.566 165.431,56.282C164.895,57.001 164.102,57.606 163.053,58.098C162.003,58.592 160.582,58.838 158.792,58.838L149.465,58.838L149.465,34.825ZM151.566,45.353L158.792,45.353C159.636,45.353 160.367,45.247 160.985,45.034C161.603,44.821 162.118,44.529 162.529,44.159C162.942,43.79 163.25,43.358 163.455,42.864C163.661,42.372 163.765,41.844 163.765,41.284C163.765,38.279 162.107,36.777 158.793,36.777L151.567,36.777L151.567,45.353L151.566,45.353ZM151.566,56.889L158.792,56.889C159.574,56.889 160.316,56.817 161.016,56.671C161.715,56.525 162.334,56.262 162.87,55.88C163.405,55.499 163.826,54.988 164.136,54.35C164.445,53.712 164.599,52.91 164.599,51.946C164.599,50.398 164.093,49.238 163.085,48.465C162.076,47.692 160.645,47.305 158.792,47.305L151.566,47.305L151.566,56.889Z" style="fill:rgb(109,110,113);fill-rule:nonzero;"/>
            <path id="path45" d="M170.837,34.825L172.937,34.825L172.937,56.888L185.29,56.888L185.29,58.839L170.837,58.839L170.837,34.825Z" style="fill:rgb(109,110,113);fill-rule:nonzero;"/>
            <path id="path47" d="M188.191,34.825L203.416,34.825L203.416,36.776L190.291,36.776L190.291,45.453L202.583,45.453L202.583,47.404L190.291,47.404L190.291,56.888L203.571,56.888L203.571,58.839L188.191,58.839L188.191,34.825Z" style="fill:rgb(109,110,113);fill-rule:nonzero;"/>
            <path id="path49" d="M207.246,34.825L209.592,34.825L222.438,55.139L222.5,55.139L222.5,34.825L224.601,34.825L224.601,58.84L222.254,58.84L209.407,38.525L209.346,38.525L209.346,58.84L207.246,58.84L207.246,34.825Z" style="fill:rgb(109,110,113);fill-rule:nonzero;"/>
            <path id="path51" d="M228.708,34.825L244.582,34.825L244.582,36.843L230.067,56.889L244.891,56.889L244.891,58.84L227.72,58.84L227.72,56.822L242.235,36.776L228.708,36.776L228.708,34.825Z" style="fill:rgb(109,110,113);fill-rule:nonzero;"/>
            <path id="path55" d="M105.462,78.697L105.462,71.807L106.549,71.807L106.549,78.697C106.549,79.428 106.666,79.964 106.901,80.302C107.136,80.64 107.516,80.81 108.044,80.81C108.603,80.81 108.998,80.627 109.229,80.261C109.443,79.941 109.55,79.419 109.55,78.697L109.55,71.807L110.637,71.807L110.637,78.697C110.637,79.657 110.423,80.408 109.995,80.947C109.543,81.514 108.891,81.799 108.045,81.799C106.323,81.799 105.462,80.765 105.462,78.697Z" style="fill-rule:nonzero;"/>
            <path id="path57" d="M113.7,81.606L113.7,71.807L115.116,71.807L118.047,79.987L118.047,71.807L119.134,71.807L119.134,81.606L117.631,81.606L114.787,73.673L114.787,81.606L113.7,81.606Z" style="fill-rule:nonzero;"/>
            <rect id="rect59" x="122.282" y="71.807" width="1.087" height="9.799"/>
            <path id="path61" d="M127.926,81.606L125.777,71.807L126.914,71.807L128.642,80.22L128.667,80.22L130.395,71.807L131.532,71.807L129.308,81.606L127.926,81.606Z" style="fill-rule:nonzero;"/>
            <path id="path63" d="M133.952,81.606L133.952,71.807L138.509,71.807L138.509,72.877L135.039,72.877L135.039,75.951L138.312,75.951L138.312,77.021L135.039,77.021L135.039,80.535L138.657,80.535L138.657,81.605L133.952,81.605L133.952,81.606Z" style="fill-rule:nonzero;"/>
            <path id="path65" d="M141.386,81.606L141.386,71.807L144.239,71.807C144.938,71.807 145.49,72.024 145.894,72.458C146.297,72.892 146.499,73.494 146.499,74.263C146.499,75.663 146.047,76.487 145.14,76.734L145.14,76.761C145.511,76.807 145.807,76.983 146.029,77.289C146.252,77.596 146.37,77.964 146.388,78.393L146.461,80.068C146.495,80.901 146.65,81.413 146.93,81.605L145.621,81.605C145.464,81.431 145.365,80.959 145.324,80.191L145.25,78.669C145.217,78.074 145.06,77.667 144.781,77.447C144.6,77.309 144.32,77.241 143.941,77.241L142.472,77.241L142.472,81.605L141.386,81.605L141.386,81.606ZM142.473,72.796L142.473,76.254L143.548,76.254C144.066,76.254 144.449,76.177 144.696,76.021C145.14,75.738 145.363,75.184 145.363,74.361C145.363,73.876 145.222,73.494 144.942,73.215C144.663,72.937 144.271,72.797 143.769,72.797L142.473,72.797L142.473,72.796Z" style="fill-rule:nonzero;"/>
            <path id="path67" d="M154.341,74.347L153.254,74.347C153.254,73.185 152.797,72.604 151.884,72.604C150.912,72.604 150.426,73.134 150.426,74.196C150.426,74.946 150.784,75.496 151.5,75.842C152.167,76.126 152.838,76.41 153.513,76.694C154.229,77.151 154.588,77.883 154.588,78.889C154.588,79.923 154.287,80.692 153.686,81.195C153.2,81.598 152.587,81.799 151.846,81.799C150.858,81.799 150.154,81.515 149.734,80.947C149.363,80.444 149.178,79.639 149.178,78.532L150.265,78.532C150.265,79.255 150.343,79.772 150.5,80.083C150.738,80.568 151.211,80.811 151.92,80.811C152.356,80.811 152.72,80.651 153.013,80.331C153.305,80.011 153.451,79.595 153.451,79.082C153.451,78.332 153.093,77.773 152.377,77.408C151.71,77.124 151.039,76.836 150.364,76.543C149.648,76.076 149.289,75.336 149.289,74.32C149.289,73.652 149.442,73.09 149.747,72.632C150.183,71.955 150.891,71.616 151.871,71.616C153.493,71.615 154.316,72.525 154.341,74.347Z" style="fill-rule:nonzero;"/>
            <rect id="rect69" x="157.403" y="71.807" width="1.087" height="9.799"/>
            <path id="path71" d="M164.319,72.878L164.319,81.607L163.232,81.607L163.232,72.878L161.022,72.878L161.022,71.808L166.543,71.808L166.543,72.878L164.319,72.878Z" style="fill-rule:nonzero;"/>
            <path id="path73" d="M170.678,77.764L168.344,71.808L169.543,71.808L171.222,76.392L172.963,71.808L174.1,71.808L171.765,77.764L171.765,81.607L170.678,81.607L170.678,77.764Z" style="fill-rule:nonzero;"/>
            <path id="path75" d="M183.93,71.615C185.034,71.615 185.81,72.155 186.264,73.234C186.601,74.04 186.77,75.197 186.77,76.707C186.77,78.217 186.601,79.374 186.264,80.179C185.81,81.259 185.034,81.799 183.93,81.799C182.826,81.799 182.048,81.259 181.596,80.179C181.258,79.374 181.089,78.217 181.089,76.707C181.089,75.197 181.258,74.04 181.596,73.234C182.048,72.155 182.826,71.615 183.93,71.615ZM183.93,72.604C183.238,72.604 182.765,73.006 182.51,73.812C182.32,74.407 182.226,75.372 182.226,76.708C182.226,78.044 182.32,79.009 182.51,79.604C182.765,80.41 183.239,80.812 183.93,80.812C184.621,80.812 185.095,80.41 185.35,79.604C185.54,79.009 185.634,78.044 185.634,76.708C185.634,75.372 185.54,74.407 185.35,73.812C185.095,73.006 184.621,72.604 183.93,72.604Z" style="fill-rule:nonzero;"/>
            <path id="path77" d="M189.807,81.606L189.807,71.807L194.364,71.807L194.364,72.877L190.894,72.877L190.894,75.951L194.167,75.951L194.167,77.021L190.894,77.021L190.894,81.605L189.807,81.605L189.807,81.606Z" style="fill-rule:nonzero;"/>
            <path id="path79" d="M200.44,81.606L202.983,71.807L204.44,71.807L206.811,81.606L205.676,81.606L205.046,78.916L202.23,78.916L201.575,81.606L200.44,81.606ZM203.675,73.193L202.453,77.928L204.824,77.928L203.701,73.193L203.675,73.193Z" style="fill-rule:nonzero;"/>
            <path id="path81" d="M209.145,81.606L209.145,71.807L211.393,71.807C212.101,71.807 212.653,71.926 213.049,72.163C213.764,72.594 214.122,73.412 214.122,74.62C214.122,75.516 213.89,76.214 213.425,76.713C212.96,77.212 212.344,77.461 211.578,77.461L210.233,77.461L210.233,81.606L209.145,81.606ZM210.233,72.796L210.233,76.474L211.529,76.474C211.949,76.474 212.297,76.312 212.572,75.987C212.848,75.663 212.987,75.189 212.987,74.567C212.987,73.386 212.476,72.796 211.454,72.796L210.233,72.796Z" style="fill-rule:nonzero;"/>
            <path id="path83" d="M216.815,81.606L216.815,71.807L219.062,71.807C219.77,71.807 220.322,71.926 220.717,72.163C221.433,72.594 221.791,73.412 221.791,74.62C221.791,75.516 221.558,76.214 221.094,76.713C220.628,77.212 220.013,77.461 219.247,77.461L217.901,77.461L217.901,81.606L216.815,81.606ZM217.901,72.796L217.901,76.474L219.197,76.474C219.617,76.474 219.966,76.312 220.241,75.987C220.517,75.663 220.655,75.189 220.655,74.567C220.655,73.386 220.145,72.796 219.123,72.796L217.901,72.796Z" style="fill-rule:nonzero;"/>
            <path id="path85" d="M224.484,81.606L224.484,71.807L225.571,71.807L225.571,80.536L229.152,80.536L229.152,81.606L224.484,81.606Z" style="fill-rule:nonzero;"/>
            <rect id="rect87" x="231.696" y="71.807" width="1.087" height="9.799"/>
            <path id="path89" d="M235.943,81.606L235.943,71.807L240.5,71.807L240.5,72.877L237.031,72.877L237.031,75.951L240.303,75.951L240.303,77.021L237.031,77.021L237.031,80.535L240.649,80.535L240.649,81.605L235.943,81.605L235.943,81.606Z" style="fill-rule:nonzero;"/>
            <path id="path91" d="M243.489,81.606L243.489,71.807L245.848,71.807C247.1,71.807 247.955,72.287 248.416,73.247C248.763,73.952 248.934,75.104 248.934,76.706C248.934,79.973 247.943,81.605 245.959,81.605L243.489,81.605L243.489,81.606ZM244.576,72.796L244.576,80.618L245.711,80.618C246.552,80.618 247.137,80.188 247.465,79.328C247.688,78.733 247.799,77.864 247.799,76.721C247.799,75.486 247.701,74.594 247.502,74.044C247.189,73.212 246.592,72.796 245.711,72.796L244.576,72.796Z" style="fill-rule:nonzero;"/>
            <path id="path95" d="M256.852,80.152C257.333,80.495 258.025,80.756 258.766,80.756C259.865,80.756 260.506,80.111 260.506,79.179C260.506,78.328 260.062,77.821 258.939,77.354C257.582,76.806 256.742,76.01 256.742,74.72C256.742,73.281 257.816,72.21 259.433,72.21C260.273,72.21 260.902,72.43 261.26,72.662L260.963,73.637C260.704,73.458 260.149,73.198 259.396,73.198C258.26,73.198 257.828,73.953 257.828,74.584C257.828,75.448 258.335,75.873 259.482,76.367C260.889,76.971 261.593,77.725 261.593,79.083C261.593,80.51 260.655,81.759 258.693,81.759C257.889,81.759 257.014,81.485 256.57,81.155L256.852,80.152Z" style="fill-rule:nonzero;"/>
            <path id="path99" d="M268.929,78.244L270.066,78.244C269.942,80.614 269.049,81.799 267.385,81.799C266.257,81.799 265.471,81.259 265.027,80.179C264.706,79.402 264.545,78.244 264.545,76.707C264.545,75.197 264.715,74.04 265.052,73.234C265.505,72.155 266.283,71.615 267.386,71.615C269.074,71.615 269.943,72.631 269.992,74.662L268.855,74.662C268.822,73.29 268.333,72.603 267.385,72.603C266.694,72.603 266.22,73.005 265.965,73.811C265.775,74.406 265.682,75.371 265.682,76.707C265.682,78.043 265.775,79.008 265.965,79.603C266.22,80.409 266.695,80.811 267.385,80.811C267.978,80.811 268.398,80.532 268.645,79.974C268.81,79.589 268.905,79.013 268.929,78.244Z" style="fill-rule:nonzero;"/>
            <rect id="rect101" x="272.795" y="71.807" width="1.086" height="9.799"/>
            <path id="path103" d="M277.03,81.606L277.03,71.807L281.587,71.807L281.587,72.877L278.118,72.877L278.118,75.951L281.391,75.951L281.391,77.021L278.118,77.021L278.118,80.535L281.736,80.535L281.736,81.605L277.03,81.605L277.03,81.606Z" style="fill-rule:nonzero;"/>
            <path id="path105" d="M284.465,81.606L284.465,71.807L285.881,71.807L288.813,79.987L288.813,71.807L289.899,71.807L289.899,81.606L288.396,81.606L285.553,73.673L285.553,81.606L284.465,81.606Z" style="fill-rule:nonzero;"/>
            <path id="path107" d="M297.309,78.244L298.446,78.244C298.321,80.614 297.428,81.799 295.765,81.799C294.637,81.799 293.852,81.259 293.407,80.179C293.086,79.402 292.926,78.244 292.926,76.707C292.926,75.197 293.093,74.04 293.432,73.234C293.884,72.155 294.662,71.615 295.766,71.615C297.453,71.615 298.322,72.631 298.371,74.662L297.236,74.662C297.202,73.29 296.712,72.603 295.766,72.603C295.073,72.603 294.601,73.005 294.346,73.811C294.157,74.406 294.062,75.371 294.062,76.707C294.062,78.043 294.157,79.008 294.346,79.603C294.601,80.409 295.074,80.811 295.766,80.811C296.358,80.811 296.779,80.532 297.024,79.974C297.189,79.589 297.283,79.013 297.309,78.244Z" style="fill-rule:nonzero;"/>
            <path id="path109" d="M301.172,81.606L301.172,71.807L305.729,71.807L305.729,72.877L302.26,72.877L302.26,75.951L305.533,75.951L305.533,77.021L302.26,77.021L302.26,80.535L305.879,80.535L305.879,81.605L301.172,81.605L301.172,81.606Z" style="fill-rule:nonzero;"/>
            <path id="path111" d="M313.436,74.347L312.348,74.347C312.348,73.185 311.891,72.604 310.978,72.604C310.008,72.604 309.521,73.134 309.521,74.196C309.521,74.946 309.879,75.496 310.596,75.842C311.262,76.126 311.933,76.41 312.608,76.694C313.325,77.151 313.682,77.883 313.682,78.889C313.682,79.923 313.381,80.692 312.78,81.195C312.295,81.598 311.681,81.799 310.94,81.799C309.952,81.799 309.249,81.515 308.829,80.947C308.458,80.444 308.274,79.639 308.274,78.532L309.36,78.532C309.36,79.255 309.437,79.772 309.594,80.083C309.833,80.568 310.307,80.811 311.016,80.811C311.451,80.811 311.816,80.651 312.107,80.331C312.4,80.011 312.546,79.595 312.546,79.082C312.546,78.332 312.188,77.773 311.473,77.408C310.805,77.124 310.134,76.836 309.459,76.543C308.744,76.076 308.385,75.336 308.385,74.32C308.385,73.652 308.537,73.09 308.843,72.632C309.278,71.955 309.986,71.616 310.965,71.616C312.588,71.615 313.412,72.525 313.436,74.347Z" style="fill-rule:nonzero;"/>
        </g>
    </g>
</svg>
